<svg xmlns="http://www.w3.org/2000/svg" viewBox="0 0 640 560" role="img" aria-labelledby="title desc">
  <title id="title">Ilustração de estudante de tecnologia</title>
  <desc id="desc">Personagem estilizado diante de uma tela com elementos de código.</desc>
  <defs>
    <linearGradient id="bg" x1="0" x2="1" y1="0" y2="1"><stop stop-color="#eef0ff"/><stop offset="1" stop-color="#dfe3ff"/></linearGradient>
    <linearGradient id="screen" x1="0" x2="1"><stop stop-color="#171a30"/><stop offset="1" stop-color="#2a2f55"/></linearGradient>
  </defs>
  <rect width="640" height="560" rx="48" fill="url(#bg)"/>
  <circle cx="130" cy="110" r="42" fill="#fff" opacity=".6"/>
  <circle cx="540" cy="120" r="22" fill="#fff" opacity=".55"/>
  <rect x="170" y="112" width="300" height="214" rx="18" fill="url(#screen)"/>
  <rect x="194" y="138" width="252" height="160" rx="10" fill="#111426"/>
  <circle cx="210" cy="155" r="5" fill="#8b8fff"/><circle cx="228" cy="155" r="5" fill="#8b8fff"/><circle cx="246" cy="155" r="5" fill="#8b8fff"/>
  <rect x="210" y="188" width="120" height="10" rx="5" fill="#7377d8"/>
  <rect x="210" y="214" width="168" height="10" rx="5" fill="#50557d"/>
  <rect x="210" y="240" width="94" height="10" rx="5" fill="#50557d"/>
  <rect x="250" y="326" width="140" height="18" rx="9" fill="#222846"/>
  <path d="M100 498c23-103 103-153 220-153s197 50 220 153" fill="#5b5cf0"/>
  <circle cx="320" cy="280" r="86" fill="#f1b48a"/>
  <path d="M234 278c0-71 33-111 86-111s86 40 86 111v14H234z" fill="#232846"/>
  <path d="M273 286c14 14 80 14 94 0" fill="none" stroke="#9a5d52" stroke-width="8" stroke-linecap="round"/>
  <circle cx="288" cy="274" r="7" fill="#232846"/><circle cx="352" cy="274" r="7" fill="#232846"/>
  <path d="M280 204c26-31 82-33 114 0" fill="none" stroke="#1a1d30" stroke-width="18" stroke-linecap="round"/>
</svg>
